# xmcd
#
# Track frame offsets:
#	150
#	13473
#	31843
#	47373
#	68162
#	83410
#	102378
#	116008
#	132787
#	153237
#	170513
#	184148
#	202084
#	220982
#	238460
#
# Disc length: 3420 seconds
#
# Revision: 1
# Processed by: cddbd v1.5.2PL0 Copyright (c) Steve Scherf et al.
# Submitted via: audiograbber 1.83.01
#
DISCID=d00d5a0f
DTITLE=Chartbuster Karaoke - Essential 8 Disc 8
DYEAR=1900
DGENRE=Karaoke
TTITLE0=Billy Currington - Why Why Why
TTITLE1=Craig Morgan - Little Bit Of Life
TTITLE2=Carrie Underwood - Before He Cheats
TTITLE3=Keith Anderson - Every Time I Hear Your Name
TTITLE4=Miranda Lambert - Crazy Ex-Girlfriend
TTITLE5=Brad Paisley - The World
TTITLE6=Ashley Monroe - Satisfied
TTITLE7=George Strait - Give It Away
TTITLE8=Sara Evans - Missing Missouri
TTITLE9=Billy Currington - Good Directions
TTITLE10=Blaine Larsen - Spoken Like A Man
TTITLE11=Kellie Pickler - Red High Heels
TTITLE12=Dierks Bentley - Every Mile A Memory
TTITLE13=Montgomery Gentry - You Do Your Thing
TTITLE14=Wreckers - The Good King
EXTD=
EXTT0=
EXTT1=
EXTT2=
EXTT3=
EXTT4=
EXTT5=
EXTT6=
EXTT7=
EXTT8=
EXTT9=
EXTT10=
EXTT11=
EXTT12=
EXTT13=
EXTT14=
PLAYORDER=
